<svg width="32" height="32" viewBox="0 0 32 32" fill="none" xmlns="http://www.w3.org/2000/svg">
    <path fill-rule="evenodd" clip-rule="evenodd"
        d="M16.4242 2C8.45485 2 2 8.42347 2 16.3541C2 22.7058 6.12894 28.0707 11.8626 29.9726C12.5838 30.0982 12.8542 29.6676 12.8542 29.2908C12.8542 28.9498 12.8362 27.8195 12.8362 26.6173C9.21212 27.2812 8.27454 25.7381 7.98606 24.9307C7.82379 24.518 7.12061 23.2441 6.50758 22.9032C6.00273 22.634 5.28151 21.9702 6.48954 21.9522C7.62545 21.9343 8.43682 22.9929 8.70727 23.4235C10.0055 25.5946 12.0789 24.9845 12.9083 24.6077C13.0345 23.6747 13.4132 23.0467 13.8279 22.6879C10.6185 22.329 7.26485 21.091 7.26485 15.6005C7.26485 14.0395 7.82379 12.7476 8.74333 11.7429C8.59909 11.384 8.09424 9.91271 8.88757 7.93901C8.88757 7.93901 10.0956 7.56222 12.8542 9.41031C14.0082 9.08734 15.2342 8.92586 16.4603 8.92586C17.6864 8.92586 18.9124 9.08734 20.0664 9.41031C22.825 7.54428 24.033 7.93901 24.033 7.93901C24.8264 9.91271 24.3215 11.384 24.1773 11.7429C25.0968 12.7476 25.6558 14.0216 25.6558 15.6005C25.6558 21.1089 22.2841 22.329 19.0747 22.6879C19.5976 23.1364 20.0483 23.9977 20.0483 25.3434C20.0483 27.2632 20.0303 28.8063 20.0303 29.2908C20.0303 29.6676 20.3008 30.1161 21.022 29.9726C26.7195 28.0707 30.8485 22.6879 30.8485 16.3541C30.8485 8.42347 24.3936 2 16.4242 2Z"
        fill="#1B1F23" />
</svg>
